#!OML:ASF I:\salsa\salsa 7_09\Patient 1\Session 1\dancermale.ASF
:FULLY-SPECIFIED
:DEGREES
1469
root -6.75154 17.2646 -2.58684 -125.615 107.852 220.53
lowerback -12.7151 -0.128433 -12.8182
upperback 0.16921 2.20511 -4.04485
thorax 7.08013 0.762056 3.27147
lowerneck -8.81674 1.57613 3.39947
upperneck 13.4037 2.08428 -2.49067
head 5.55357 1.04315 -1.18146
rclavicle -2.66371e-014 2.78299e-015
rhumerus -77.9136 16.4937 -155.5
rradius 76.6108
rwrist 20.9319
rhand -17.5706 13.0376
rfingers 7.12502
rthumb 8.68468 -16.7638
lclavicle -2.66371e-014 2.78299e-015
lhumerus -33.825 -19.7979 105.299
lradius 90.5694
lwrist 71.5007
lhand -19.3268 62.3896
lfingers 7.12502
lthumb 6.98968 267.746
rfemur -6.85799 -2.6483 7.49506
rtibia 26.9871
rfoot -16.8917 -12.8971
rtoes -10.4126
lfemur -37.5136 2.6645 -38.3929
ltibia 41.5648
lfoot -22.7342 13.0967
ltoes -8.00811
1470
root -6.6582 17.2585 -2.57507 -126.061 107.925 220.276
lowerback -12.6951 0.02041 -12.8432
upperback 0.241541 2.41088 -4.06394
thorax 7.11757 0.855981 3.30052
lowerneck -9.19752 1.46632 3.37079
upperneck 14.1493 1.91688 -2.27275
head 5.84493 0.979135 -1.11837
rclavicle 1.00883e-014 -7.63333e-014
rhumerus -77.8637 16.5965 -155.672
rradius 76.4471
rwrist 20.828
rhand -17.8561 13.1575
rfingers 7.12502
rthumb 8.4092 -16.6551
lclavicle 1.00883e-014 -7.63333e-014
lhumerus -36.1613 -20.9632 106.225
lradius 91.0489
lwrist 70.8274
lhand -19.5103 61.6367
lfingers 7.12502
lthumb 6.81254 268.493
rfemur -6.62475 -2.68741 7.4085
rtibia 27.5176
rfoot -16.682 -12.6021
rtoes -11.552
lfemur -36.9229 3.06007 -38.7569
ltibia 41.0697
lfoot -22.763 13.01
ltoes -8.4537
1471
root -6.55889 17.2515 -2.56173 -126.364 107.953 220.154
lowerback -12.5722 0.157876 -12.8907
upperback 0.229583 2.57931 -4.08758
thorax 7.00886 0.943383 3.32737
lowerneck -9.5448 1.37612 3.32277
upperneck 14.9935 1.76368 -1.94091
head 6.16338 0.933516 -1.01542
rclavicle 1.55052e-014 -4.47266e-014
rhumerus -77.7875 16.4183 -155.697
rradius 76.4245
rwrist 20.8556
rhand -17.954 13.2337
rfingers 7.12502
rthumb 8.31468 -16.5826
lclavicle 1.55052e-014 -4.47266e-014
lhumerus -38.6612 -21.7793 107.132
lradius 91.6974
lwrist 69.8841
lhand -19.7142 62.1019
lfingers 7.12502
lthumb 6.61568 268.021
rfemur -6.54046 -2.69213 7.3343
rtibia 28.3384
rfoot -16.4514 -12.3855
rtoes -12.4581
lfemur -36.254 3.34673 -39.0003
ltibia 40.528
lfoot -22.8047 12.6286
ltoes -6.90812
1472
root -6.44162 17.2459 -2.54971 -127.25 108.164 219.765
lowerback -12.3199 0.353521 -13.0552
upperback 0.352247 2.82772 -4.07016
thorax 6.95517 1.05513 3.47148
lowerneck -9.85827 1.26201 3.16299
upperneck 15.6764 1.60045 -1.67978
head 6.42671 0.871881 -0.91762
rclavicle 5.96354e-016 5.12864e-014
rhumerus -77.8251 16.342 -155.681
rradius 76.4839
rwrist 20.7412
rhand -18.0499 13.3869
rfingers 7.12502
rthumb 8.22217 -16.4331
lclavicle 5.96354e-016 5.12864e-014
lhumerus -41.0122 -22.2978 108.022
lradius 92.3599
lwrist 68.7247
lhand -18.8941 63.474
lfingers 7.12502
lthumb 7.40735 266.676
rfemur -6.21034 -2.65362 7.10616
rtibia 29.3504
rfoot -16.0429 -11.9176
rtoes -12.761
lfemur -34.9995 3.81969 -39.2095
ltibia 39.6843
lfoot -22.8321 12.3793
ltoes -3.96431
1473
root -6.31645 17.244 -2.54309 -128.064 108.326 219.602
lowerback -11.9962 0.506973 -13.2637
upperback 0.577642 3.01739 -3.9889
thorax 6.97543 1.12594 3.69476
lowerneck -10.0842 1.13858 3.0216
upperneck 16.1679 1.46106 -1.66998
head 6.61801 0.801524 -0.901944
rclavicle -1.09829e-014 1.63003e-014
rhumerus -77.8941 16.3591 -155.541
rradius 76.4989
rwrist 21.0377
rhand -18.0967 13.6302
rfingers 7.12502
rthumb 8.17704 -16.1915
lclavicle -1.09829e-014 1.63003e-014
lhumerus -43.0717 -22.7653 109.011
lradius 92.8877
lwrist 67.5585
lhand -18.1415 64.1
lfingers 7.12502
lthumb 8.13373 266.077
rfemur -5.83525 -2.72199 6.83265
rtibia 30.6507
rfoot -15.4539 -11.3106
rtoes -12.1474
lfemur -33.394 4.05797 -39.2902
ltibia 38.7632
lfoot -22.8988 12.4835
ltoes -1.9998
1474
root -6.19657 17.2302 -2.54471 -128.008 108.222 219.727
lowerback -12.0294 0.533153 -13.2019
upperback 0.590844 3.04735 -3.96449
thorax 7.00504 1.13928 3.6934
lowerneck -10.2447 1.015 2.86032
upperneck 16.7099 1.31138 -1.54996
head 6.81425 0.735761 -0.849171
rclavicle 2.21645e-014 -9.74045e-014
rhumerus -77.9064 16.4125 -155.57
rradius 76.3233
rwrist 21.6556
rhand -18.7313 13.3479
rfingers 7.12502
rthumb 7.56455 -16.4968
lclavicle 2.21645e-014 -9.74045e-014
lhumerus -45.0573 -23.3613 110.009
lradius 93.2003
lwrist 66.2292
lhand -18.3752 63.3589
lfingers 7.12502
lthumb 7.90826 266.809
rfemur -6.497 -3.12656 6.67675
rtibia 32.7173
rfoot -14.6854 -10.7713
rtoes -11.0506
lfemur -32.4958 3.58656 -39.1911
ltibia 38.1673
lfoot -23.036 12.4632
ltoes -1.46868
1475
root -6.07435 17.2195 -2.54916 -127.722 108.051 220.1
lowerback -11.9044 0.563369 -13.0185
upperback 0.546057 3.04481 -4.06712
thorax 6.89871 1.15644 3.47857
lowerneck -10.3485 0.875106 2.91449
upperneck 17.3147 1.11434 -1.47425
head 7.02284 0.659405 -0.851119
rclavicle 2.41523e-014 -8.13029e-014
rhumerus -77.7208 16.4234 -155.717
rradius 76.3245
rwrist 21.0223
rhand -18.945 13.1912
rfingers 7.12502
rthumb 7.35825 -16.6609
lclavicle 2.41523e-014 -8.13029e-014
lhumerus -46.9052 -24.0139 110.74
lradius 93.3321
lwrist 64.1735
lhand -17.8568 63.0448
lfingers 7.12502
lthumb 8.40851 267.143
rfemur -7.45448 -3.82638 6.4696
rtibia 35.3604
rfoot -13.4745 -10.1001
rtoes -9.95034
lfemur -31.5939 3.17683 -39.1226
ltibia 37.6387
lfoot -23.1806 11.959
ltoes -1.19704
1476
root -5.95092 17.2158 -2.56103 -126.936 107.799 220.965
lowerback -11.7799 0.525187 -12.8722
upperback 0.544464 2.96134 -4.15545
thorax 6.85002 1.12737 3.28684
lowerneck -10.4702 0.783917 3.08996
upperneck 17.931 0.994608 -1.57638
head 7.24267 0.61362 -0.924472
rclavicle -1.54555e-014 -1.63003e-014
rhumerus -77.4887 16.5021 -155.787
rradius 76.2121
rwrist 20.9148
rhand -19.0593 13.2106
rfingers 7.12502
rthumb 7.24787 -16.6453
lclavicle -1.54555e-014 -1.63003e-014
lhumerus -48.0863 -24.3874 110.948
lradius 93.5921
lwrist 60.8666
lhand -14.3973 65.8848
lfingers 7.12502
lthumb 11.746 264.465
rfemur -8.8024 -4.90234 6.14105
rtibia 38.6205
rfoot -11.6534 -9.25323
rtoes -7.83472
lfemur -30.8272 2.99039 -39.2295
ltibia 37.2217
lfoot -23.1846 11.1918
ltoes -0.301973
1477
root -5.82873 17.2189 -2.57879 -125.988 107.438 222.042
lowerback -11.614 0.426192 -12.6672
upperback 0.619832 2.78231 -4.17494
thorax 6.87312 1.04411 3.1209
lowerneck -10.6961 0.723483 3.03039
upperneck 18.679 0.94248 -1.58336
head 7.5255 0.594475 -0.922165
rclavicle 6.65929e-015 2.5842e-014
rhumerus -77.2969 16.8006 -155.81
rradius 75.9236
rwrist 21.1619
rhand -19.1126 13.2955
rfingers 7.12502
rthumb 7.19644 -16.5621
lclavicle 6.65929e-015 2.5842e-014
lhumerus -49.1437 -25.2027 111.439
lradius 93.6374
lwrist 58.4926
lhand -14.3859 65.6908
lfingers 7.12502
lthumb 11.757 264.659
rfemur -10.6024 -6.23377 5.826
rtibia 42.6257
rfoot -9.13204 -8.29291
rtoes -4.04241
lfemur -30.1145 3.08428 -39.3628
ltibia 36.9049
lfoot -23.277 10.3367
ltoes 1.00216
1478
root -5.70894 17.2267 -2.59564 -125.204 106.999 223
lowerback -11.5095 0.270377 -12.4361
upperback 0.805187 2.536 -4.10136
thorax 7.05552 0.912578 3.03134
lowerneck -10.8924 0.662203 2.76122
upperneck 19.3493 0.913741 -1.51554
head 7.77889 0.577343 -0.858216
rclavicle 1.43622e-014 4.37326e-014
rhumerus -77.2152 17.3483 -155.854
rradius 75.4768
rwrist 21.6726
rhand -19.226 13.3555
rfingers 7.12502
rthumb 7.08701 -16.5058
lclavicle 1.43622e-014 4.37326e-014
lhumerus -49.7813 -25.9585 111.565
lradius 93.7501
lwrist 55.4491
lhand -12.0453 66.7608
lfingers 7.12502
lthumb 14.0134 263.732
rfemur -12.9265 -7.69594 5.6196
rtibia 47.3986
rfoot -5.81502 -7.26369
rtoes 2.09832
lfemur -29.3124 3.47215 -39.385
ltibia 36.5146
lfoot -23.5863 9.55002
ltoes 1.17482
1479
root -5.59567 17.2391 -2.61174 -124.488 106.527 223.863
lowerback -11.5151 0.083003 -12.2665
upperback 1.09354 2.27395 -3.92535
thorax 7.40832 0.754788 3.08386
lowerneck -11.0664 0.597245 2.52726
upperneck 19.8646 0.915788 -1.66799
head 7.98027 0.553084 -0.869678
rclavicle -1.39149e-014 8.28932e-014
rhumerus -77.3146 18.0959 -156.118
rradius 75.0629
rwrist 21.6248
rhand -19.396 13.3481
rfingers 7.12502
rthumb 6.92289 -16.5187
lclavicle -1.39149e-014 8.28932e-014
lhumerus -50.1915 -27.5045 112.586
lradius 93.1065
lwrist 56.0958
lhand -16.1643 64.3898
lfingers 7.12502
lthumb 10.0417 265.87
rfemur -15.7613 -9.16903 5.53213
rtibia 52.6969
rfoot -1.88591 -6.59314
rtoes 11.411
lfemur -28.3747 4.05001 -39.3044
ltibia 35.8131
lfoot -23.8434 8.71503
ltoes 0.583897
1480
root -5.48908 17.2494 -2.62672 -123.718 106.046 224.76
lowerback -11.1655 0.0176992 -11.9629
upperback 1.13162 2.0838 -3.87678
thorax 7.28094 0.677745 2.93086
lowerneck -11.1957 0.401246 2.21772
upperneck 20.8208 0.738989 -1.63121
head 8.31802 0.464218 -0.824817
rclavicle 1.65985e-014 -1.68967e-014
rhumerus -77.2576 18.1743 -156.234
rradius 74.6393
rwrist 22.0541
rhand -19.5505 13.4962
rfingers 7.12502
rthumb 6.77377 -16.3754
lclavicle 1.65985e-014 -1.68967e-014
lhumerus -50.5129 -28.839 113.06
lradius 92.8402
lwrist 55.2121
lhand -16.5147 65.2142
lfingers 7.12502
lthumb 9.70356 265.029
rfemur -18.8414 -10.4897 5.56068
rtibia 58.0044
rfoot 2.17876 -6.45128
rtoes 20.1218
lfemur -27.268 4.67816 -39.174
ltibia 34.7238
lfoot -23.9573 7.71524
ltoes 0.702948
1481
root -5.38578 17.2565 -2.6389 -123.17 105.515 225.496
lowerback -10.3594 0.105354 -11.4968
upperback 0.917793 1.98795 -3.90976
thorax 6.61004 0.690844 2.61063
lowerneck -10.7737 0.295776 2.55666
upperneck 21.7501 0.66592 -1.94606
head 8.55428 0.44873 -0.996552
rclavicle 4.37326e-015 -1.37161e-014
rhumerus -77.1517 17.6127 -156.268
rradius 74.2647
rwrist 22.906
rhand -19.7472 13.6419
rfingers 7.12502
rthumb 6.58385 -16.2358
lclavicle 4.37326e-015 -1.37161e-014
lhumerus -51.2073 -30.4333 113.76
lradius 92.6955
lwrist 53.9048
lhand -16.1627 65.4688
lfingers 7.12502
lthumb 10.0432 264.791
rfemur -21.8634 -11.5042 5.79823
rtibia 62.9397
rfoot 5.49259 -6.13319
rtoes 23.8467
lfemur -25.9741 5.20365 -38.9166
ltibia 33.3834
lfoot -23.94 6.83067
ltoes 0.975506
1482
root -5.28374 17.2648 -2.64906 -122.599 104.95 226.398
lowerback -9.5466 0.146112 -11.1931
upperback 0.896508 1.86155 -3.79005
thorax 6.1399 0.658474 2.53835
lowerneck -10.5141 0.209542 2.88635
upperneck 22.5831 0.650034 -2.40448
head 8.79103 0.443124 -1.21119
rclavicle 2.79789e-014 2.70347e-014
rhumerus -77.1645 17.2983 -156.12
rradius 73.8612
rwrist 24.4688
rhand -19.9389 13.8677
rfingers 7.12502
rthumb 6.39885 -16.0157
lclavicle 2.79789e-014 2.70347e-014
lhumerus -51.4703 -32.124 114.524
lradius 92.6216
lwrist 52.0911
lhand -16.0203 65.0197
lfingers 7.12502
lthumb 10.1806 265.247
rfemur -24.5854 -12.2414 6.1348
rtibia 67.2912
rfoot 7.17888 -5.78356
rtoes 23.9188
lfemur -24.5236 5.34033 -38.5842
ltibia 32.0301
lfoot -23.7478 6.3508
ltoes 0.751167
1483
root -5.18269 17.2772 -2.65839 -121.455 104.421 227.917
lowerback -8.86987 0.121927 -11.0502
upperback 1.04455 1.70585 -3.61364
thorax 5.92857 0.586069 2.61394
lowerneck -10.8364 -0.0221163 2.22694
upperneck 23.7939 0.478544 -2.21833
head 9.26356 0.345432 -1.06002
rclavicle -4.22417e-015 -6.65929e-014
rhumerus -77.1807 17.1153 -155.79
rradius 73.3534
rwrist 26.7593
rhand -20.0643 14.2538
rfingers 7.12502
rthumb 6.27777 -15.6332
lclavicle -4.22417e-015 -6.65929e-014
lhumerus -51.1345 -33.8501 115.008
lradius 92.5216
lwrist 49.4712
lhand -14.5771 66.0265
lfingers 7.12502
lthumb 11.5726 264.313
rfemur -27.0117 -12.7497 6.43162
rtibia 70.8103
rfoot 7.49329 -6.30759
rtoes 25.3909
lfemur -23.0968 4.8699 -38.348
ltibia 30.8564
lfoot -23.4781 6.23558
ltoes 1.78939
